<?xml version="1.0" standalone="no"?><!DOCTYPE svg PUBLIC "-//W3C//DTD SVG 1.1//EN" "http://www.w3.org/Graphics/SVG/1.1/DTD/svg11.dtd"><svg t="1752330642302" class="icon" viewBox="0 0 1024 1024" version="1.1" xmlns="http://www.w3.org/2000/svg" p-id="6030" xmlns:xlink="http://www.w3.org/1999/xlink" width="200" height="200"><path d="M326.217143 653.897143l42.422857 42.422857 99.474286-36.571429-105.325715-105.325714-36.571428 99.474286z" fill="#AFCD50" p-id="6031"></path><path d="M512 71.68c-242.834286 0-438.857143 196.022857-438.857143 438.857143s196.022857 438.857143 438.857143 438.857143 438.857143-196.022857 438.857143-438.857143c0-241.371429-196.022857-438.857143-438.857143-438.857143z m-21.942857 610.011429c-1.462857 1.462857-2.925714 1.462857-4.388572 2.925714l-201.874285 73.142857c-5.851429 1.462857-11.702857 0-14.628572-2.925714-4.388571-4.388571-5.851429-10.24-2.925714-14.628572l73.142857-201.874285c0-1.462857 1.462857-2.925714 2.925714-4.388572L522.24 351.085714c19.017143 19.017143 36.571429 35.108571 36.571429 35.108572l-141.897143 141.897143c-2.925714 2.925714-2.925714 5.851429-2.925715 8.777142 0 2.925714 1.462857 5.851429 2.925715 8.777143 2.925714 1.462857 5.851429 2.925714 8.777143 2.925715 2.925714 0 5.851429-1.462857 8.777142-2.925715l141.897143-141.897143 45.348572 43.885715-141.897143 141.897143c-4.388571 4.388571-4.388571 11.702857 0 16.091428 1.462857 1.462857 5.851429 2.925714 8.777143 2.925714 2.925714 0 5.851429-1.462857 8.777143-2.925714l141.897142-141.897143 35.108572 35.108572-184.32 182.857143z m254.537143-254.537143L687.542857 484.205714 538.331429 334.994286l57.051428-57.051429c20.48-20.48 54.125714-20.48 73.142857 0l74.605715 74.605714c21.942857 20.48 21.942857 54.125714 1.462857 74.605715z" fill="#AFCD50" p-id="6032"></path></svg>